<svg xmlns="http://www.w3.org/2000/svg" version="1.0" width="228.000000pt" height="226.000000pt" viewBox="-3 -3 234 232" preserveAspectRatio="xMidYMid meet"><g id="deeditor_bgCarrier" stroke-width="0">
    <rect id="dee_c_e" x="-3" y="-3" width="234" height="232" rx="0" fill="#000000" strokewidth="0"/>
  </g>

<g transform="translate(0.000000,226.000000) scale(0.100000,-0.100000)" fill="#ffffff" stroke="none">
<path d="M0 1130 l0 -1130 1140 0 1140 0 0 1130 0 1130 -1140 0 -1140 0 0 -1130z m1766 433 c-6 -21 -92 -338 -167 -620 l-54 -203 -542 0 -543 0 0 113 c0 105 8 151 46 280 5 15 19 17 120 17 115 0 115 0 108 -22 -4 -13 -15 -53 -25 -90 l-17 -68 344 0 343 0 11 43 c31 118 66 248 106 394 24 89 44 165 44 168 0 3 52 5 116 5 105 0 115 -2 110 -17z" fill="#ffffff"/>
</g>
</svg>